<svg xmlns="http://www.w3.org/2000/svg" xmlns:xlink="http://www.w3.org/1999/xlink" preserveAspectRatio="xMidYMid" width="52" height="46.031" viewBox="0 0 52 46.031">
  <defs>
    <style>
      .cls-1 {
        fill: #282c35;
        fill-rule: evenodd;
      }
    </style>
  </defs>
  <path d="M42.992,23.022 C40.031,23.022 37.621,20.640 37.621,17.712 C37.621,14.784 40.031,12.403 42.992,12.403 C45.954,12.403 48.363,14.784 48.363,17.712 C48.363,20.640 45.954,23.022 42.992,23.022 ZM37.990,25.047 C39.420,26.003 41.141,26.561 42.992,26.561 C44.757,26.561 46.395,26.037 47.783,25.161 C49.764,28.303 52.002,33.134 52.002,38.949 L33.983,38.949 C33.983,32.615 36.066,27.985 37.990,25.047 ZM35.446,22.426 C33.092,25.775 30.403,31.271 30.403,38.949 L30.403,42.489 L39.383,42.489 L39.383,44.029 C39.383,46.028 37.309,46.028 37.309,46.028 L2.070,46.028 C-0.003,46.028 -0.003,44.029 -0.003,44.029 L-0.003,17.782 C-0.003,15.781 1.490,14.393 1.490,14.393 L18.197,0.631 C19.690,-0.757 21.183,0.631 21.183,0.631 L35.712,12.600 C34.669,14.046 34.041,15.804 34.041,17.712 C34.041,19.448 34.568,21.058 35.446,22.426 ZM27.984,24.986 L18.458,16.468 C18.458,16.468 16.705,14.903 16.705,17.177 L16.705,21.607 L12.230,21.607 C12.230,21.607 10.738,21.607 10.738,23.022 L10.738,30.100 C10.738,30.100 10.738,31.517 12.230,31.517 L16.705,31.517 L16.705,35.921 C16.705,35.921 16.979,38.196 18.458,36.631 L27.984,28.115 C27.984,28.115 29.463,26.550 27.984,24.986 Z" class="cls-1"/>
</svg>
