<svg xmlns="http://www.w3.org/2000/svg" xmlns:xlink="http://www.w3.org/1999/xlink" preserveAspectRatio="xMidYMid" width="31" height="33" viewBox="0 0 31 33">
  <defs>
    <style>
      .cls-1 {
        fill: #282c35;
        fill-rule: evenodd;
      }
    </style>
  </defs>
  <path d="M28.294,32.993 L2.706,32.993 C1.219,32.993 0.013,31.810 0.013,30.352 L0.013,6.593 C0.013,5.135 1.219,3.953 2.706,3.953 L3.338,3.953 L3.338,5.314 C3.338,9.315 7.420,9.274 7.420,9.274 C11.460,9.274 11.418,5.273 11.418,5.273 L11.418,3.953 L18.825,3.953 L18.867,5.314 C18.867,9.232 22.907,9.274 22.907,9.274 C26.905,9.274 26.947,5.273 26.947,5.273 L26.947,3.953 L28.294,3.953 C29.781,3.953 30.988,5.135 30.988,6.593 L30.988,30.352 C30.988,31.810 29.781,32.993 28.294,32.993 ZM9.440,13.193 L2.706,13.193 L2.706,17.153 L9.440,17.153 L9.440,13.193 ZM9.440,19.792 L2.706,19.792 L2.706,23.753 L9.440,23.753 L9.440,19.792 ZM9.440,26.393 L2.706,26.393 L2.706,30.352 L9.440,30.352 L9.440,26.393 ZM18.867,13.193 L12.133,13.193 L12.133,17.153 L18.867,17.153 L18.867,13.193 ZM18.867,19.792 L12.133,19.792 L12.133,23.753 L18.867,23.753 L18.867,19.792 ZM18.867,26.393 L12.133,26.393 L12.133,30.352 L18.867,30.352 L18.867,26.393 ZM28.294,13.193 L21.560,13.193 L21.560,17.153 L28.294,17.153 L28.294,13.193 ZM28.294,19.792 L21.560,19.792 L21.560,23.753 L28.294,23.753 L28.294,19.792 ZM28.294,26.393 L21.560,26.393 L21.560,30.352 L28.294,30.352 L28.294,26.393 ZM22.907,7.913 C21.419,7.913 20.214,6.731 20.214,5.273 L20.214,2.633 C20.214,1.175 21.419,-0.007 22.907,-0.007 C24.395,-0.007 25.600,1.175 25.600,2.633 L25.600,5.273 C25.600,6.731 24.395,7.913 22.907,7.913 ZM7.420,7.913 C5.932,7.913 4.726,6.731 4.726,5.273 L4.726,2.633 C4.726,1.175 5.932,-0.007 7.420,-0.007 C8.907,-0.007 10.113,1.175 10.113,2.633 L10.113,5.273 C10.113,6.731 8.907,7.913 7.420,7.913 Z" class="cls-1"/>
</svg>
