<svg xmlns="http://www.w3.org/2000/svg" xmlns:xlink="http://www.w3.org/1999/xlink" preserveAspectRatio="xMidYMid" width="53" height="53" viewBox="0 0 53 53">
  <defs>
    <style>
      .cls-1 {
        fill: #282c35;
        fill-rule: evenodd;
      }
    </style>
  </defs>
  <path d="M48.972,31.893 C48.328,32.274 47.961,32.992 48.027,33.737 C48.061,34.115 48.078,34.500 48.078,34.887 C48.078,35.095 48.073,35.301 48.064,35.507 C48.032,36.224 48.397,36.900 49.015,37.265 L52.993,39.619 C52.572,41.157 51.957,42.642 51.164,44.033 L46.808,42.913 C46.090,42.731 45.337,42.969 44.855,43.528 C44.453,43.995 44.002,44.446 43.516,44.867 C42.959,45.349 42.723,46.105 42.906,46.818 L44.023,51.176 C42.630,51.972 41.147,52.587 39.613,53.006 L39.613,53.007 L37.259,49.025 C36.908,48.432 36.272,48.072 35.589,48.072 C35.555,48.072 35.521,48.073 35.486,48.075 C34.908,48.106 34.312,48.088 33.737,48.037 C32.985,47.967 32.275,48.337 31.895,48.981 L29.513,53.006 C27.978,52.587 26.494,51.972 25.103,51.177 L26.342,46.348 C26.517,45.667 26.311,44.944 25.802,44.458 C25.452,44.126 25.120,43.775 24.810,43.408 C24.329,42.838 23.565,42.596 22.847,42.780 L17.963,44.031 C17.171,42.642 16.555,41.158 16.135,39.620 L20.742,36.891 C21.344,36.536 21.706,35.885 21.695,35.187 L21.691,34.887 C21.691,34.605 21.700,34.326 21.717,34.049 C21.762,33.320 21.396,32.628 20.768,32.256 L16.134,29.514 C16.555,27.975 17.171,26.490 17.966,25.101 L23.309,26.473 C24.000,26.653 24.734,26.435 25.219,25.909 C25.442,25.666 25.674,25.434 25.915,25.210 C26.436,24.726 26.651,23.996 26.475,23.306 L25.103,17.956 C26.494,17.161 27.978,16.546 29.513,16.124 L32.257,20.765 C32.631,21.396 33.324,21.759 34.060,21.712 C34.332,21.693 34.607,21.685 34.884,21.685 L35.183,21.689 C35.931,21.713 36.531,21.339 36.886,20.737 L39.613,16.125 C41.156,16.548 42.640,17.165 44.024,17.956 L42.771,22.842 C42.586,23.563 42.830,24.327 43.400,24.808 C43.767,25.118 44.116,25.446 44.445,25.794 C44.928,26.304 45.651,26.516 46.335,26.339 L51.163,25.098 C51.956,26.489 52.572,27.974 52.994,29.514 L48.972,31.893 ZM34.907,26.372 C30.253,26.372 26.480,30.148 26.480,34.805 C26.480,39.461 30.253,43.237 34.907,43.237 C39.561,43.237 43.334,39.461 43.334,34.805 C43.334,30.148 39.561,26.372 34.907,26.372 ZM32.853,14.148 C32.205,13.053 31.019,12.361 29.777,12.263 L29.777,10.631 L23.398,10.631 L23.398,14.478 C23.326,14.517 23.248,14.545 23.177,14.586 C21.666,15.452 20.912,17.235 21.344,18.920 L22.179,22.176 L21.273,21.943 L21.273,19.141 L14.895,19.141 L14.895,22.740 C14.787,22.879 14.682,23.021 14.594,23.176 C13.787,24.591 13.170,26.099 12.680,27.648 L6.391,27.648 L6.391,34.031 L12.769,34.031 L12.769,31.427 C13.095,32.002 13.562,32.503 14.159,32.856 L14.895,33.291 L14.895,34.031 L16.143,34.031 L17.050,34.567 L14.160,36.278 C12.726,37.124 12.010,38.798 12.349,40.413 L2.140,40.413 L2.140,38.285 L0.014,38.285 L0.014,6.378 L2.140,6.378 L2.140,4.250 L6.392,4.250 L6.392,2.123 L8.517,2.123 L8.517,-0.005 L10.643,-0.005 L10.643,2.123 L12.769,2.123 L12.769,4.250 L14.895,4.250 L14.895,2.123 L17.021,2.123 L17.021,-0.005 L19.148,-0.005 L19.148,2.123 L21.273,2.123 L21.273,4.250 L23.400,4.250 L23.400,2.123 L25.525,2.123 L25.525,-0.005 L27.650,-0.005 L27.650,2.123 L29.777,2.123 L29.777,4.250 L34.029,4.250 L34.029,6.378 L36.154,6.378 L36.154,14.352 L34.563,17.041 L32.853,14.148 ZM12.769,10.631 L6.391,10.631 L6.391,17.013 L12.769,17.013 L12.769,10.631 ZM12.769,19.141 L6.391,19.141 L6.391,25.522 L12.769,25.522 L12.769,19.141 ZM21.273,10.631 L14.895,10.631 L14.895,17.013 L21.273,17.013 L21.273,10.631 Z" class="cls-1"/>
</svg>
