<svg xmlns="http://www.w3.org/2000/svg" xmlns:xlink="http://www.w3.org/1999/xlink" preserveAspectRatio="xMidYMid" width="52" height="48" viewBox="0 0 52 48">
  <defs>
    <style>
      .cls-1 {
        fill: #282c35;
        fill-rule: evenodd;
      }
    </style>
  </defs>
  <path d="M50.455,31.017 L45.814,31.017 L45.814,35.612 C45.814,35.612 45.531,37.982 43.997,36.352 L34.121,27.466 C34.121,27.466 32.588,25.835 34.121,24.202 L43.997,15.317 C43.997,15.317 45.814,13.685 45.814,16.058 L45.814,20.678 L50.455,20.678 C50.455,20.678 52.001,20.678 52.001,22.155 L52.001,29.539 C52.001,29.539 52.001,31.017 50.455,31.017 ZM11.106,40.616 C11.106,33.939 13.249,29.125 15.239,26.084 C16.724,27.095 18.514,27.693 20.447,27.693 C22.279,27.693 23.979,27.148 25.417,26.229 C27.469,29.503 29.788,34.540 29.788,40.616 L11.106,40.616 ZM20.447,12.924 C23.518,12.924 26.016,15.408 26.016,18.463 C26.016,19.826 25.499,21.059 24.675,22.025 C24.675,22.025 24.675,22.025 24.675,22.025 C24.675,22.025 24.675,22.026 24.675,22.026 C24.423,22.321 24.145,22.588 23.837,22.825 C23.829,22.832 23.821,22.839 23.813,22.845 C23.529,23.062 23.225,23.250 22.902,23.409 C22.860,23.430 22.822,23.455 22.780,23.475 C22.486,23.611 22.178,23.715 21.860,23.798 C21.786,23.818 21.718,23.849 21.643,23.865 C21.257,23.950 20.859,24.001 20.447,24.001 C20.030,24.001 19.626,23.947 19.234,23.860 C19.150,23.841 19.073,23.807 18.990,23.784 C18.675,23.699 18.370,23.593 18.080,23.456 C18.025,23.430 17.975,23.398 17.921,23.370 C17.603,23.207 17.305,23.018 17.026,22.800 C17.008,22.785 16.991,22.771 16.974,22.756 C16.667,22.511 16.391,22.237 16.143,21.933 C16.143,21.933 16.143,21.933 16.142,21.932 C16.142,21.932 16.142,21.932 16.142,21.932 C15.365,20.980 14.879,19.783 14.879,18.463 C14.879,15.408 17.377,12.924 20.447,12.924 ZM36.289,17.028 L20.624,3.849 C20.515,3.756 20.405,3.699 20.357,3.693 L20.209,3.849 L4.466,17.097 L4.467,17.097 C4.478,17.097 3.711,17.919 3.711,18.955 L3.711,44.229 C3.714,44.239 3.739,44.333 3.760,44.366 L36.986,44.308 C37.055,44.302 37.152,44.275 37.186,44.254 L37.164,35.218 L40.834,38.339 L40.834,44.229 C40.834,46.679 38.870,48.000 37.023,48.000 L3.810,48.000 C1.335,48.000 -0.001,46.057 -0.001,44.229 L-0.001,18.955 C-0.001,16.316 1.776,14.550 1.979,14.358 L17.811,1.031 C18.489,0.382 19.401,0.000 20.365,0.000 C21.866,0.000 22.911,0.920 23.105,1.105 L38.771,14.284 C38.923,14.428 39.043,14.580 39.174,14.730 L36.367,17.116 C36.340,17.087 36.318,17.056 36.289,17.028 Z" class="cls-1"/>
</svg>
