<svg xmlns="http://www.w3.org/2000/svg" xmlns:xlink="http://www.w3.org/1999/xlink" preserveAspectRatio="xMidYMid" width="56.156" height="48.406" viewBox="0 0 56.156 48.406">
  <defs>
    <style>
      .cls-1 {
        fill: #282c35;
        fill-rule: evenodd;
      }
    </style>
  </defs>
  <path d="M33.678,19.347 L34.859,16.721 C33.378,15.896 31.700,15.484 29.825,15.484 C27.558,15.484 25.707,16.154 24.273,17.492 C22.837,18.831 21.943,20.676 21.587,23.026 L19.478,23.026 L19.478,25.189 L21.389,25.189 L21.362,26.101 L21.362,26.621 L21.389,27.142 L19.478,27.142 L19.478,29.291 L21.616,29.291 C22.045,31.632 22.967,33.421 24.376,34.657 C25.788,35.893 27.624,36.510 29.882,36.510 C31.514,36.510 32.942,36.225 34.170,35.653 L34.170,32.802 C32.764,33.384 31.392,33.674 30.052,33.674 C27.238,33.674 25.533,32.211 24.932,29.291 L30.431,29.291 L30.431,27.142 L24.694,27.142 L24.665,26.595 L24.665,25.822 L24.694,25.189 L31.316,25.189 L31.316,23.026 L24.905,23.026 C25.186,21.435 25.746,20.244 26.586,19.460 C27.425,18.672 28.504,18.279 29.825,18.279 C30.950,18.279 32.236,18.635 33.678,19.347 M46.477,26.123 C46.477,32.510 43.191,38.099 38.240,41.392 C30.987,40.629 25.178,40.629 17.931,41.395 C12.979,38.105 9.689,32.512 9.689,26.123 C9.689,15.974 17.923,7.748 28.083,7.748 C38.242,7.748 46.477,15.974 46.477,26.123 M56.158,48.398 L56.158,41.023 C56.158,41.023 56.158,37.154 52.618,35.583 C51.420,35.050 50.140,34.589 48.831,34.159 C49.805,31.667 50.349,28.961 50.349,26.123 L50.301,21.287 C49.789,9.453 40.054,0.011 28.083,0.011 C16.113,0.011 6.376,9.453 5.864,21.287 L5.816,26.123 C5.816,28.961 6.360,31.667 7.334,34.159 C6.025,34.589 4.745,35.050 3.547,35.583 C3.547,35.583 0.007,37.154 0.007,41.023 C0.007,46.825 0.070,48.270 0.007,48.409 C16.672,43.214 39.485,43.210 56.158,48.398 " class="cls-1"/>
</svg>
