<?xml version="1.0" encoding="UTF-8" standalone="no"?>
<svg
   xmlns:dc="http://purl.org/dc/elements/1.1/"
   xmlns:cc="http://creativecommons.org/ns#"
   xmlns:rdf="http://www.w3.org/1999/02/22-rdf-syntax-ns#"
   xmlns:svg="http://www.w3.org/2000/svg"
   xmlns="http://www.w3.org/2000/svg"
   xmlns:sodipodi="http://sodipodi.sourceforge.net/DTD/sodipodi-0.dtd"
   xmlns:inkscape="http://www.inkscape.org/namespaces/inkscape"
   width="59"
   height="52"
   viewBox="0 0 59 52"
   id="svg2"
   version="1.1"
   inkscape:version="0.48.5 r"
   sodipodi:docname="i_geofence.svg">
  <metadata
     id="metadata14">
    <rdf:RDF>
      <cc:Work
         rdf:about="">
        <dc:format>image/svg+xml</dc:format>
        <dc:type
           rdf:resource="http://purl.org/dc/dcmitype/StillImage" />
      </cc:Work>
    </rdf:RDF>
  </metadata>
  <defs
     id="defs12" />
  <sodipodi:namedview
     pagecolor="#ffffff"
     bordercolor="#666666"
     borderopacity="1"
     objecttolerance="10"
     gridtolerance="10"
     guidetolerance="10"
     inkscape:pageopacity="0"
     inkscape:pageshadow="2"
     inkscape:window-width="1195"
     inkscape:window-height="730"
     id="namedview10"
     showgrid="false"
     inkscape:zoom="4.5384615"
     inkscape:cx="29.5"
     inkscape:cy="26"
     inkscape:window-x="0"
     inkscape:window-y="0"
     inkscape:window-maximized="0"
     inkscape:current-layer="g4" />
  <g
     fill="#666666"
     fill-rule="evenodd"
     id="g4">
    <path
       d="M49.4503,28.1675 C49.8203,27.0945 50.1083,25.9835 50.3053,24.8415 C52.6213,25.3625 54.3083,25.9185 55.3053,26.4105 C54.1873,26.9615 52.2203,27.5945 49.4503,28.1675 M41.7673,33.2445 L41.4153,33.5965 L32.8433,42.1685 L29.4073,45.6045 L25.9713,42.1685 L17.3983,33.5965 L17.0473,33.2445 C16.6403,32.8255 16.2573,32.3815 15.8943,31.9235 C19.9413,32.3665 24.5333,32.6175 29.4073,32.6175 C34.2813,32.6175 38.8733,32.3665 42.9213,31.9235 C42.5573,32.3815 42.1753,32.8255 41.7673,33.2445 M13.1973,15.4035 C14.9343,10.5795 18.7513,6.7625 23.5753,5.0265 C25.3993,4.3695 27.3573,3.9935 29.4073,3.9935 C31.4583,3.9935 33.4153,4.3695 35.2403,5.0265 C40.0643,6.7625 43.8803,10.5795 45.6173,15.4035 C46.2743,17.2275 46.6503,19.1855 46.6503,21.2365 C46.6503,21.2855 46.6433,21.3325 46.6433,21.3825 C46.6353,22.3095 46.5433,23.2155 46.3933,24.1025 C46.1043,25.8185 45.5663,27.4475 44.8093,28.9515 C40.7053,29.5085 35.5513,29.8955 29.4073,29.8955 C23.2633,29.8955 18.1093,29.5085 14.0053,28.9515 C13.2483,27.4475 12.7103,25.8185 12.4213,24.1025 C12.2723,23.2155 12.1793,22.3095 12.1713,21.3825 C12.1713,21.3325 12.1643,21.2855 12.1643,21.2365 C12.1643,19.1855 12.5413,17.2275 13.1973,15.4035 M3.5103,26.4105 C4.5073,25.9185 6.1933,25.3625 8.5093,24.8415 C8.7063,25.9835 8.9953,27.0945 9.3643,28.1675 C6.5943,27.5945 4.6273,26.9615 3.5103,26.4105 M50.6013,22.1095 C50.6163,21.8185 50.6433,21.5305 50.6433,21.2365 C50.6433,20.9495 50.6123,20.6705 50.6003,20.3865 C50.4993,17.8495 49.9683,15.4225 49.0493,13.1885 C46.8923,7.9445 42.6993,3.7505 37.4553,1.5945 C35.2203,0.6755 32.7943,0.1445 30.2563,0.0425 C29.9723,0.0315 29.6943,-0.0005 29.4073,-0.0005 C29.1213,-0.0005 28.8423,0.0315 28.5583,0.0425 C26.0213,0.1445 23.5943,0.6755 21.3603,1.5945 C16.1153,3.7515 11.9223,7.9445 9.7653,13.1885 C8.8463,15.4225 8.3153,17.8495 8.2143,20.3865 C8.2033,20.6705 8.1713,20.9495 8.1713,21.2365 C8.1713,21.5305 8.1983,21.8185 8.2133,22.1095 C3.1303,23.2255 0.0003,24.7405 0.0003,26.4105 C0.0003,28.3365 4.1573,30.0575 10.6793,31.1965 C11.6613,33.0475 12.9023,34.7415 14.3703,36.2145 L14.4283,36.2735 L26.5843,48.4285 L29.4073,51.2515 L32.2313,48.4285 L44.3863,36.2725 L44.4443,36.2155 C45.9123,34.7415 47.1533,33.0475 48.1353,31.1965 C54.6583,30.0575 58.8153,28.3365 58.8153,26.4105 C58.8153,24.7405 55.6843,23.2255 50.6013,22.1095"
       id="path6"
       style="fill:#000000" />
    <path
       d="M29.3885,16.5016 C27.1025,16.5016 25.2415,18.3626 25.2415,20.6496 C25.2415,22.9366 27.1025,24.7976 29.3885,24.7976 C31.6765,24.7976 33.5365,22.9366 33.5365,20.6496 C33.5365,18.3626 31.6765,16.5016 29.3885,16.5016 M29.3885,27.6506 C25.5285,27.6506 22.3875,24.5096 22.3875,20.6496 C22.3875,16.7896 25.5285,13.6496 29.3885,13.6496 C33.2485,13.6496 36.3905,16.7896 36.3905,20.6496 C36.3905,24.5096 33.2485,27.6506 29.3885,27.6506"
       id="path8"
       style="fill:#000000" />
  </g>
</svg>
