<svg xmlns="http://www.w3.org/2000/svg" xmlns:xlink="http://www.w3.org/1999/xlink" preserveAspectRatio="xMidYMid" width="42.031" height="48" viewBox="0 0 42.031 48">
  <defs>
    <style>
      .cls-1 {
        fill: #282c35;
        fill-rule: evenodd;
      }
    </style>
  </defs>
  <path d="M21.020,47.990 C9.433,47.990 0.007,38.727 0.007,27.341 C0.007,19.277 4.832,11.900 12.298,8.549 C13.568,7.977 15.061,8.531 15.639,9.777 C16.217,11.025 15.658,12.497 14.391,13.065 C8.717,15.612 5.050,21.216 5.050,27.341 C5.050,35.990 12.214,43.026 21.020,43.026 C29.826,43.026 36.990,35.990 36.990,27.341 C36.990,21.175 33.289,15.556 27.561,13.027 C26.291,12.466 25.723,10.998 26.292,9.747 C26.863,8.497 28.356,7.940 29.625,8.498 C37.162,11.827 42.033,19.223 42.033,27.341 C42.033,38.727 32.607,47.990 21.020,47.990 ZM21.020,26.480 C19.627,26.480 18.808,25.370 18.808,23.999 L18.808,2.189 C18.808,0.818 19.627,0.008 21.020,0.008 C22.413,0.008 23.232,0.818 23.232,2.189 L23.232,23.999 C23.232,25.370 22.413,26.480 21.020,26.480 Z" class="cls-1"/>
</svg>
