<?xml version="1.0" encoding="utf-8"?>
<!-- Generator: Adobe Illustrator 19.1.0, SVG Export Plug-In . SVG Version: 6.00 Build 0)  -->
<svg version="1.1" id="Layer_1" xmlns="http://www.w3.org/2000/svg" xmlns:xlink="http://www.w3.org/1999/xlink" x="0px" y="0px"
	 viewBox="-47 45.7 47 50" style="enable-background:new -47 45.7 47 50;" xml:space="preserve">
<style type="text/css">
	.st0{fill:#000000;}
</style>
<path class="st0" d="M-1.7,60.1c-3-5.3-7.8-9.4-13.5-11.5c1.6-1.8,3.9-2.9,6.4-2.9c4.9,0,8.8,4,8.8,9C0,56.7-0.7,58.6-1.7,60.1z
	 M-1,72.7c0,12.7-10.1,23-22.5,23c-12.4,0-22.5-10.3-22.5-23c0-12.7,10.1-23,22.5-23C-11.1,49.7-1,60-1,72.7z M-23.5,54.7
	c-9.7,0-17.6,8.1-17.6,18s7.9,18,17.6,18c9.7,0,17.6-8.1,17.6-18S-13.8,54.7-23.5,54.7z M-23.5,86c-7.2,0-13-5.9-13-13.2
	c0-7.3,5.8-13.2,13-13.2v13.2l10.3,8C-15.5,83.9-19.3,86-23.5,86z M-45.3,60.1c-1.1-1.5-1.7-3.3-1.7-5.3c0-5,3.9-9,8.8-9
	c2.5,0,4.8,1.1,6.4,2.9C-37.5,50.6-42.3,54.8-45.3,60.1z"/>
</svg>
